<svg xmlns="http://www.w3.org/2000/svg" xmlns:xlink="http://www.w3.org/1999/xlink" width="500" zoomAndPan="magnify" viewBox="0 0 375 374.999991" height="500" preserveAspectRatio="xMidYMid meet" version="1.0"><defs><clipPath id="1cbd9213e5"><path d="M 62 173 L 220 173 L 220 329.8125 L 62 329.8125 Z M 62 173 " clip-rule="nonzero"/></clipPath><clipPath id="e541edc3ed"><path d="M 148 173 L 305 173 L 305 329.8125 L 148 329.8125 Z M 148 173 " clip-rule="nonzero"/></clipPath><clipPath id="e86027dcb6"><path d="M 59 112 L 173 112 L 173 225 L 59 225 Z M 59 112 " clip-rule="nonzero"/></clipPath><clipPath id="fb9cff196b"><path d="M 31.054688 176.351562 L 146.582031 35.398438 L 237.070312 109.566406 L 121.542969 250.519531 Z M 31.054688 176.351562 " clip-rule="nonzero"/></clipPath><clipPath id="3c317cdc02"><path d="M 31.054688 176.351562 L 146.582031 35.398438 L 237.070312 109.566406 L 121.542969 250.519531 Z M 31.054688 176.351562 " clip-rule="nonzero"/></clipPath><clipPath id="9797240a19"><path d="M 98 65 L 212 65 L 212 178 L 98 178 Z M 98 65 " clip-rule="nonzero"/></clipPath><clipPath id="aa2082190e"><path d="M 31.054688 176.351562 L 146.582031 35.398438 L 237.070312 109.566406 L 121.542969 250.519531 Z M 31.054688 176.351562 " clip-rule="nonzero"/></clipPath><clipPath id="9f081aab26"><path d="M 31.054688 176.351562 L 146.582031 35.398438 L 237.070312 109.566406 L 121.542969 250.519531 Z M 31.054688 176.351562 " clip-rule="nonzero"/></clipPath><clipPath id="fe53c7ec6e"><path d="M 155 81 L 313 81 L 313 239 L 155 239 Z M 155 81 " clip-rule="nonzero"/></clipPath><clipPath id="4bf460830a"><path d="M 269.53125 273.363281 L 44 157.613281 L 118.3125 12.820312 L 343.84375 128.566406 Z M 269.53125 273.363281 " clip-rule="nonzero"/></clipPath><clipPath id="6d88afd943"><path d="M 269.53125 273.363281 L 44 157.613281 L 118.3125 12.820312 L 343.84375 128.566406 Z M 269.53125 273.363281 " clip-rule="nonzero"/></clipPath><clipPath id="fb480d3816"><path d="M 80 42 L 237 42 L 237 199 L 80 199 Z M 80 42 " clip-rule="nonzero"/></clipPath><clipPath id="2ced07bedf"><path d="M 269.53125 273.363281 L 44 157.613281 L 118.3125 12.820312 L 343.84375 128.566406 Z M 269.53125 273.363281 " clip-rule="nonzero"/></clipPath><clipPath id="c12d9119f4"><path d="M 269.53125 273.363281 L 44 157.613281 L 118.3125 12.820312 L 343.84375 128.566406 Z M 269.53125 273.363281 " clip-rule="nonzero"/></clipPath></defs><g clip-path="url(#1cbd9213e5)"><path fill="#758ecd" d="M 140.898438 329.925781 C 139.546875 329.925781 138.195312 329.886719 136.847656 329.816406 C 135.5 329.746094 134.152344 329.640625 132.808594 329.5 C 131.464844 329.355469 130.125 329.179688 128.792969 328.96875 C 127.457031 328.761719 126.128906 328.515625 124.808594 328.234375 C 123.484375 327.957031 122.171875 327.640625 120.867188 327.292969 C 119.5625 326.945312 118.265625 326.566406 116.980469 326.152344 C 115.695312 325.734375 114.421875 325.289062 113.160156 324.808594 C 111.894531 324.324219 110.648438 323.8125 109.410156 323.265625 C 108.175781 322.722656 106.953125 322.144531 105.75 321.535156 C 104.542969 320.925781 103.355469 320.285156 102.179688 319.613281 C 101.007812 318.945312 99.855469 318.242188 98.71875 317.511719 C 97.582031 316.78125 96.464844 316.023438 95.367188 315.234375 C 94.269531 314.445312 93.195312 313.628906 92.140625 312.785156 C 91.085938 311.941406 90.054688 311.066406 89.046875 310.171875 C 88.035156 309.273438 87.050781 308.347656 86.089844 307.398438 C 85.128906 306.449219 84.191406 305.476562 83.28125 304.480469 C 82.371094 303.480469 81.484375 302.460938 80.628906 301.417969 C 79.769531 300.375 78.941406 299.308594 78.136719 298.222656 C 77.335938 297.136719 76.558594 296.03125 75.816406 294.902344 C 75.070312 293.777344 74.355469 292.632812 73.667969 291.46875 C 72.980469 290.304688 72.328125 289.121094 71.703125 287.925781 C 71.078125 286.726562 70.484375 285.515625 69.921875 284.285156 C 69.363281 283.054688 68.832031 281.8125 68.335938 280.558594 C 67.835938 279.300781 67.375 278.035156 66.941406 276.753906 C 66.511719 275.472656 66.113281 274.183594 65.746094 272.882812 C 65.382812 271.582031 65.054688 270.273438 64.757812 268.953125 C 64.460938 267.636719 64.199219 266.3125 63.96875 264.980469 C 63.742188 263.648438 63.546875 262.3125 63.390625 260.96875 C 63.230469 259.628906 63.109375 258.285156 63.019531 256.9375 C 62.929688 255.589844 62.875 254.238281 62.859375 252.886719 C 62.839844 251.535156 62.855469 250.1875 62.90625 248.835938 C 62.957031 247.488281 63.042969 246.140625 63.164062 244.792969 C 63.285156 243.449219 63.441406 242.105469 63.632812 240.769531 C 63.824219 239.433594 64.050781 238.101562 64.308594 236.773438 C 64.570312 235.449219 64.863281 234.132812 65.191406 232.820312 C 65.519531 231.511719 65.882812 230.210938 66.277344 228.917969 C 66.671875 227.625 67.101562 226.34375 67.566406 225.074219 C 68.027344 223.804688 68.523438 222.550781 69.050781 221.304688 C 69.578125 220.0625 70.136719 218.832031 70.726562 217.617188 C 71.316406 216.402344 71.941406 215.207031 72.59375 214.023438 C 73.246094 212.839844 73.929688 211.675781 74.644531 210.527344 C 75.359375 209.382812 76.101562 208.253906 76.871094 207.144531 C 77.644531 206.039062 78.445312 204.949219 79.273438 203.882812 C 80.101562 202.816406 80.957031 201.769531 81.839844 200.75 C 82.722656 199.726562 83.632812 198.726562 84.566406 197.75 C 85.503906 196.777344 86.460938 195.824219 87.445312 194.898438 C 88.429688 193.976562 89.4375 193.074219 90.46875 192.203125 C 91.5 191.328125 92.550781 190.480469 93.625 189.664062 C 94.699219 188.84375 95.792969 188.054688 96.910156 187.292969 C 98.027344 186.53125 99.160156 185.796875 100.3125 185.09375 C 101.46875 184.390625 102.636719 183.71875 103.828125 183.078125 C 105.015625 182.433594 106.21875 181.824219 107.441406 181.242188 C 108.660156 180.664062 109.894531 180.117188 111.144531 179.601562 C 112.390625 179.085938 113.652344 178.601562 114.925781 178.152344 C 116.199219 177.699219 117.484375 177.285156 118.777344 176.898438 C 120.074219 176.515625 121.378906 176.164062 122.691406 175.851562 C 124.003906 175.535156 125.328125 175.25 126.65625 175.003906 C 127.980469 174.757812 129.316406 174.542969 130.65625 174.363281 C 131.992188 174.1875 133.335938 174.042969 134.683594 173.933594 C 136.03125 173.824219 137.378906 173.75 138.730469 173.710938 C 140.078125 173.675781 141.429688 173.671875 142.78125 173.703125 C 144.128906 173.734375 145.480469 173.800781 146.828125 173.898438 C 148.171875 174 149.515625 174.136719 150.855469 174.308594 C 152.199219 174.480469 153.53125 174.683594 154.863281 174.925781 L 164.355469 176.640625 L 160.921875 195.628906 L 151.429688 193.914062 C 150.445312 193.734375 149.457031 193.582031 148.464844 193.453125 C 147.476562 193.324219 146.480469 193.21875 145.484375 193.140625 C 144.488281 193.0625 143.488281 193.011719 142.492188 192.984375 C 141.492188 192.957031 140.492188 192.957031 139.492188 192.980469 C 138.492188 193.003906 137.496094 193.050781 136.5 193.125 C 135.5 193.203125 134.507812 193.300781 133.515625 193.425781 C 132.523438 193.550781 131.535156 193.703125 130.550781 193.878906 C 129.566406 194.054688 128.589844 194.253906 127.613281 194.480469 C 126.640625 194.707031 125.671875 194.957031 124.710938 195.230469 C 123.75 195.503906 122.796875 195.804688 121.851562 196.128906 C 120.90625 196.453125 119.96875 196.800781 119.039062 197.171875 C 118.113281 197.542969 117.195312 197.9375 116.285156 198.355469 C 115.378906 198.773438 114.480469 199.214844 113.59375 199.675781 C 112.710938 200.140625 111.835938 200.625 110.976562 201.136719 C 110.113281 201.644531 109.269531 202.171875 108.433594 202.726562 C 107.601562 203.277344 106.78125 203.847656 105.976562 204.441406 C 105.171875 205.035156 104.382812 205.648438 103.609375 206.28125 C 102.835938 206.914062 102.078125 207.566406 101.339844 208.238281 C 100.597656 208.910156 99.875 209.601562 99.171875 210.3125 C 98.464844 211.019531 97.78125 211.746094 97.113281 212.488281 C 96.445312 213.234375 95.796875 213.996094 95.167969 214.769531 C 94.539062 215.546875 93.929688 216.339844 93.339844 217.148438 C 92.75 217.957031 92.183594 218.777344 91.636719 219.617188 C 91.089844 220.453125 90.566406 221.300781 90.0625 222.167969 C 89.558594 223.03125 89.078125 223.90625 88.617188 224.792969 C 88.160156 225.683594 87.722656 226.582031 87.308594 227.492188 C 86.898438 228.402344 86.507812 229.324219 86.140625 230.253906 C 85.777344 231.183594 85.433594 232.121094 85.117188 233.070312 C 84.796875 234.015625 84.503906 234.972656 84.234375 235.933594 C 83.964844 236.898438 83.71875 237.867188 83.5 238.839844 C 83.28125 239.816406 83.085938 240.796875 82.914062 241.78125 C 82.742188 242.765625 82.597656 243.753906 82.480469 244.75 C 82.359375 245.742188 82.265625 246.734375 82.195312 247.734375 C 82.125 248.730469 82.082031 249.730469 82.066406 250.726562 C 82.046875 251.726562 82.054688 252.726562 82.085938 253.726562 C 82.121094 254.726562 82.179688 255.722656 82.261719 256.71875 C 82.34375 257.714844 82.453125 258.707031 82.589844 259.699219 C 82.722656 260.691406 82.882812 261.675781 83.066406 262.660156 C 83.25 263.640625 83.460938 264.617188 83.695312 265.589844 C 83.929688 266.5625 84.1875 267.527344 84.472656 268.484375 C 84.753906 269.445312 85.0625 270.394531 85.394531 271.339844 C 85.726562 272.28125 86.082031 273.214844 86.460938 274.140625 C 86.84375 275.0625 87.246094 275.980469 87.671875 276.882812 C 88.097656 277.789062 88.546875 278.679688 89.019531 279.5625 C 89.488281 280.441406 89.984375 281.3125 90.5 282.167969 C 91.015625 283.023438 91.554688 283.867188 92.113281 284.695312 C 92.671875 285.523438 93.25 286.339844 93.851562 287.136719 C 94.453125 287.9375 95.074219 288.71875 95.710938 289.488281 C 96.351562 290.253906 97.011719 291.007812 97.691406 291.738281 C 98.371094 292.472656 99.066406 293.191406 99.78125 293.886719 C 100.496094 294.585938 101.230469 295.265625 101.980469 295.929688 C 102.730469 296.589844 103.496094 297.230469 104.277344 297.851562 C 105.0625 298.476562 105.859375 299.078125 106.671875 299.65625 C 107.484375 300.238281 108.3125 300.800781 109.15625 301.339844 C 109.996094 301.878906 110.851562 302.394531 111.71875 302.890625 C 112.585938 303.386719 113.46875 303.859375 114.359375 304.3125 C 115.253906 304.761719 116.15625 305.1875 117.070312 305.59375 C 117.984375 306 118.90625 306.378906 119.839844 306.738281 C 120.773438 307.09375 121.714844 307.429688 122.667969 307.738281 C 123.617188 308.046875 124.574219 308.332031 125.539062 308.59375 C 126.503906 308.855469 127.476562 309.089844 128.453125 309.300781 C 129.429688 309.515625 130.414062 309.699219 131.398438 309.863281 C 132.386719 310.023438 133.375 310.160156 134.367188 310.269531 C 135.363281 310.378906 136.359375 310.464844 137.355469 310.527344 C 138.355469 310.585938 139.351562 310.621094 140.351562 310.628906 C 141.351562 310.636719 142.351562 310.621094 143.351562 310.582031 C 144.347656 310.539062 145.34375 310.472656 146.339844 310.378906 C 147.335938 310.285156 148.328125 310.167969 149.316406 310.023438 C 150.308594 309.882812 151.292969 309.714844 152.273438 309.519531 C 153.253906 309.328125 154.230469 309.109375 155.199219 308.867188 C 156.167969 308.621094 157.132812 308.355469 158.085938 308.0625 C 159.042969 307.769531 159.992188 307.453125 160.929688 307.113281 C 161.871094 306.773438 162.800781 306.410156 163.722656 306.019531 C 164.644531 305.632812 165.554688 305.222656 166.457031 304.785156 C 167.355469 304.351562 168.246094 303.894531 169.121094 303.414062 C 170 302.9375 170.863281 302.433594 171.714844 301.910156 C 172.566406 301.386719 173.402344 300.84375 174.226562 300.277344 C 175.050781 299.710938 175.859375 299.121094 176.652344 298.515625 C 177.445312 297.90625 178.226562 297.277344 178.988281 296.632812 C 179.75 295.984375 180.492188 295.316406 181.222656 294.632812 C 181.949219 293.949219 182.660156 293.246094 183.351562 292.523438 C 184.042969 291.800781 184.714844 291.0625 185.371094 290.308594 C 186.023438 289.550781 186.660156 288.78125 187.273438 287.992188 C 187.890625 287.203125 188.484375 286.398438 189.058594 285.582031 C 189.632812 284.761719 190.183594 283.929688 190.714844 283.082031 C 191.246094 282.238281 191.757812 281.378906 192.246094 280.503906 C 192.734375 279.632812 193.199219 278.746094 193.640625 277.851562 C 194.082031 276.957031 194.503906 276.046875 194.898438 275.128906 C 195.296875 274.214844 195.667969 273.285156 196.019531 272.347656 C 196.367188 271.414062 196.691406 270.46875 196.992188 269.515625 C 197.292969 268.5625 197.570312 267.601562 197.824219 266.632812 C 198.074219 265.664062 198.300781 264.691406 198.503906 263.714844 C 198.707031 262.734375 198.886719 261.75 199.039062 260.761719 C 199.191406 259.777344 199.316406 258.785156 199.417969 257.789062 C 199.519531 256.796875 199.597656 255.800781 199.648438 254.800781 C 199.699219 253.800781 199.722656 252.804688 199.722656 251.804688 C 199.734375 247.484375 199.273438 243.21875 198.335938 239 C 197.398438 234.785156 196.011719 230.722656 194.171875 226.816406 L 190.070312 218.089844 L 207.535156 209.886719 L 211.636719 218.621094 C 212.332031 220.101562 212.980469 221.601562 213.578125 223.125 C 214.179688 224.644531 214.730469 226.183594 215.230469 227.742188 C 215.734375 229.296875 216.1875 230.867188 216.59375 232.453125 C 216.996094 234.039062 217.351562 235.632812 217.65625 237.242188 C 217.960938 238.847656 218.214844 240.464844 218.417969 242.085938 C 218.621094 243.710938 218.769531 245.339844 218.871094 246.96875 C 218.972656 248.601562 219.023438 250.238281 219.019531 251.871094 C 219.015625 253.507812 218.964844 255.144531 218.859375 256.773438 C 218.753906 258.40625 218.597656 260.035156 218.390625 261.65625 C 218.1875 263.28125 217.929688 264.894531 217.621094 266.5 C 217.3125 268.109375 216.953125 269.703125 216.546875 271.285156 C 216.136719 272.871094 215.679688 274.441406 215.171875 275.996094 C 214.664062 277.550781 214.109375 279.089844 213.507812 280.609375 C 212.902344 282.128906 212.253906 283.628906 211.554688 285.109375 C 210.859375 286.589844 210.113281 288.042969 209.324219 289.476562 C 208.535156 290.910156 207.703125 292.316406 206.824219 293.695312 C 205.949219 295.078125 205.027344 296.429688 204.066406 297.75 C 203.105469 299.074219 202.101562 300.367188 201.058594 301.625 C 200.015625 302.886719 198.933594 304.109375 197.8125 305.304688 C 196.691406 306.496094 195.535156 307.652344 194.34375 308.769531 C 193.152344 309.890625 191.921875 310.96875 190.664062 312.011719 C 189.402344 313.054688 188.109375 314.054688 186.785156 315.015625 C 185.464844 315.976562 184.109375 316.898438 182.730469 317.773438 C 181.347656 318.648438 179.941406 319.480469 178.507812 320.269531 C 177.074219 321.058594 175.617188 321.800781 174.136719 322.496094 C 172.65625 323.191406 171.15625 323.839844 169.636719 324.441406 C 168.113281 325.046875 166.578125 325.597656 165.019531 326.105469 C 163.464844 326.609375 161.894531 327.066406 160.3125 327.472656 C 158.726562 327.878906 157.132812 328.238281 155.523438 328.542969 C 153.917969 328.851562 152.304688 329.109375 150.679688 329.3125 C 149.058594 329.519531 147.429688 329.671875 145.796875 329.777344 C 144.164062 329.878906 142.53125 329.929688 140.894531 329.933594 Z M 140.898438 329.925781 " fill-opacity="1" fill-rule="nonzero"/></g><g clip-path="url(#e541edc3ed)"><path fill="#758ecd" d="M 226.410156 329.9375 C 221.578125 329.9375 216.785156 329.488281 212.035156 328.59375 L 202.554688 326.8125 L 206.128906 307.847656 L 215.609375 309.636719 C 216.683594 309.835938 217.757812 310.007812 218.839844 310.148438 C 219.921875 310.289062 221.007812 310.398438 222.09375 310.480469 C 223.183594 310.5625 224.273438 310.609375 225.363281 310.632812 C 226.453125 310.652344 227.542969 310.640625 228.632812 310.597656 C 229.722656 310.558594 230.8125 310.488281 231.898438 310.386719 C 232.984375 310.285156 234.066406 310.152344 235.144531 309.992188 C 236.222656 309.828125 237.296875 309.636719 238.363281 309.417969 C 239.433594 309.195312 240.496094 308.945312 241.546875 308.664062 C 242.601562 308.382812 243.648438 308.074219 244.683594 307.734375 C 245.722656 307.394531 246.75 307.027344 247.765625 306.632812 C 248.78125 306.234375 249.785156 305.8125 250.777344 305.359375 C 251.769531 304.90625 252.75 304.425781 253.714844 303.921875 C 254.683594 303.414062 255.632812 302.882812 256.570312 302.320312 C 257.507812 301.761719 258.425781 301.175781 259.328125 300.566406 C 260.234375 299.957031 261.121094 299.320312 261.988281 298.660156 C 262.855469 298 263.707031 297.316406 264.535156 296.609375 C 265.367188 295.902344 266.175781 295.171875 266.964844 294.417969 C 267.753906 293.664062 268.523438 292.890625 269.269531 292.097656 C 270.015625 291.300781 270.742188 290.484375 271.441406 289.648438 C 272.144531 288.8125 272.820312 287.960938 273.472656 287.085938 C 274.125 286.214844 274.753906 285.320312 275.359375 284.414062 C 275.964844 283.503906 276.542969 282.582031 277.09375 281.640625 C 277.644531 280.699219 278.171875 279.746094 278.671875 278.773438 C 279.171875 277.804688 279.640625 276.820312 280.085938 275.824219 C 280.53125 274.828125 280.949219 273.820312 281.335938 272.800781 C 281.722656 271.78125 282.082031 270.753906 282.414062 269.714844 C 282.746094 268.675781 283.046875 267.625 283.320312 266.570312 C 283.59375 265.515625 283.835938 264.453125 284.046875 263.382812 C 284.261719 262.3125 284.445312 261.238281 284.597656 260.15625 C 284.753906 259.078125 284.875 257.992188 284.96875 256.90625 C 285.0625 255.820312 285.125 254.730469 285.15625 253.640625 C 285.191406 252.550781 285.191406 251.460938 285.164062 250.371094 C 285.136719 249.28125 285.078125 248.191406 284.988281 247.105469 C 284.898438 246.015625 284.78125 244.933594 284.632812 243.851562 C 284.480469 242.773438 284.304688 241.695312 284.09375 240.625 C 283.882812 239.554688 283.644531 238.492188 283.378906 237.433594 C 283.109375 236.375 282.8125 235.328125 282.484375 234.285156 C 282.15625 233.246094 281.800781 232.214844 281.417969 231.195312 C 281.035156 230.171875 280.621094 229.164062 280.179688 228.167969 C 279.742188 227.167969 279.273438 226.183594 278.777344 225.210938 C 278.28125 224.238281 277.761719 223.28125 277.210938 222.339844 C 276.664062 221.398438 276.089844 220.46875 275.488281 219.558594 C 274.886719 218.648438 274.261719 217.753906 273.613281 216.878906 C 272.964844 216.003906 272.289062 215.144531 271.589844 214.308594 C 270.894531 213.46875 270.171875 212.652344 269.429688 211.851562 C 268.6875 211.054688 267.921875 210.277344 267.136719 209.519531 C 266.347656 208.765625 265.542969 208.03125 264.714844 207.320312 C 263.886719 206.609375 263.039062 205.921875 262.175781 205.261719 C 261.308594 204.597656 260.425781 203.957031 259.523438 203.34375 C 258.621094 202.730469 257.703125 202.140625 256.769531 201.578125 C 255.835938 201.011719 254.886719 200.476562 253.921875 199.964844 C 252.957031 199.457031 251.980469 198.972656 250.992188 198.515625 C 250 198.0625 248.996094 197.632812 247.980469 197.230469 C 246.96875 196.832031 245.941406 196.460938 244.90625 196.117188 C 243.871094 195.773438 242.828125 195.460938 241.773438 195.175781 C 240.722656 194.890625 239.660156 194.636719 238.59375 194.410156 C 237.527344 194.183594 236.453125 193.988281 235.375 193.820312 C 234.296875 193.65625 233.214844 193.519531 232.128906 193.414062 C 231.042969 193.308594 229.957031 193.234375 228.867188 193.1875 C 227.777344 193.144531 226.6875 193.128906 225.597656 193.144531 C 224.503906 193.160156 223.414062 193.203125 222.328125 193.28125 C 221.238281 193.355469 220.15625 193.464844 219.074219 193.601562 C 217.988281 193.738281 216.914062 193.902344 215.839844 194.101562 C 214.765625 194.296875 213.699219 194.523438 212.640625 194.78125 C 211.578125 195.035156 210.527344 195.320312 209.484375 195.636719 C 208.4375 195.949219 207.402344 196.292969 206.378906 196.664062 C 205.351562 197.039062 204.339844 197.4375 203.335938 197.867188 C 202.332031 198.296875 201.34375 198.753906 200.363281 199.238281 C 199.386719 199.722656 198.425781 200.230469 197.476562 200.769531 C 196.527344 201.308594 195.59375 201.871094 194.675781 202.460938 C 193.757812 203.050781 192.855469 203.664062 191.972656 204.304688 C 191.089844 204.945312 190.222656 205.609375 189.378906 206.296875 C 188.53125 206.984375 187.703125 207.695312 186.898438 208.429688 C 186.089844 209.164062 185.304688 209.917969 184.539062 210.695312 C 183.777344 211.472656 183.03125 212.273438 182.3125 213.09375 C 181.59375 213.910156 180.894531 214.75 180.222656 215.609375 C 179.546875 216.464844 178.898438 217.339844 178.273438 218.234375 C 177.648438 219.128906 177.050781 220.039062 176.476562 220.96875 C 175.902344 221.894531 175.355469 222.839844 174.832031 223.796875 C 174.3125 224.753906 173.816406 225.726562 173.347656 226.710938 C 172.882812 227.699219 172.441406 228.695312 172.03125 229.707031 C 171.617188 230.714844 171.234375 231.734375 170.878906 232.765625 C 170.523438 233.796875 170.199219 234.839844 169.902344 235.890625 C 169.605469 236.9375 169.335938 237.996094 169.097656 239.058594 C 168.859375 240.125 168.652344 241.195312 168.472656 242.269531 C 168.292969 243.347656 168.144531 244.425781 168.027344 245.511719 C 167.910156 246.597656 167.820312 247.683594 167.761719 248.773438 C 167.707031 249.859375 167.679688 250.953125 167.679688 252.042969 C 167.683594 253.132812 167.714844 254.222656 167.78125 255.3125 C 167.84375 256.402344 167.9375 257.488281 168.0625 258.570312 C 168.1875 259.65625 168.339844 260.734375 168.523438 261.808594 C 168.707031 262.882812 168.921875 263.953125 169.164062 265.015625 C 169.410156 266.078125 169.683594 267.136719 169.984375 268.183594 C 170.289062 269.230469 170.617188 270.269531 170.980469 271.300781 C 171.339844 272.328125 171.730469 273.347656 172.144531 274.355469 C 172.5625 275.363281 173.007812 276.359375 173.480469 277.34375 L 177.664062 286.039062 L 160.273438 294.402344 L 156.09375 285.707031 C 155.488281 284.449219 154.914062 283.171875 154.378906 281.878906 C 153.839844 280.585938 153.335938 279.28125 152.871094 277.964844 C 152.402344 276.644531 151.972656 275.316406 151.574219 273.972656 C 151.179688 272.628906 150.820312 271.277344 150.496094 269.917969 C 150.171875 268.558594 149.886719 267.1875 149.636719 265.8125 C 149.386719 264.433594 149.171875 263.050781 149 261.664062 C 148.824219 260.277344 148.683594 258.882812 148.585938 257.488281 C 148.484375 256.09375 148.421875 254.695312 148.394531 253.296875 C 148.371094 251.898438 148.382812 250.5 148.433594 249.101562 C 148.480469 247.703125 148.570312 246.304688 148.695312 244.914062 C 148.820312 243.519531 148.980469 242.128906 149.179688 240.746094 C 149.378906 239.359375 149.617188 237.980469 149.890625 236.609375 C 150.164062 235.238281 150.472656 233.875 150.820312 232.519531 C 151.167969 231.164062 151.550781 229.816406 151.972656 228.484375 C 152.390625 227.148438 152.84375 225.824219 153.335938 224.515625 C 153.824219 223.203125 154.351562 221.90625 154.910156 220.625 C 155.472656 219.34375 156.066406 218.078125 156.695312 216.828125 C 157.324219 215.578125 157.984375 214.34375 158.679688 213.128906 C 159.371094 211.914062 160.097656 210.71875 160.859375 209.542969 C 161.617188 208.371094 162.40625 207.214844 163.226562 206.082031 C 164.046875 204.949219 164.898438 203.839844 165.78125 202.75 C 166.660156 201.664062 167.570312 200.601562 168.507812 199.5625 C 169.445312 198.523438 170.410156 197.511719 171.402344 196.523438 C 172.394531 195.539062 173.414062 194.578125 174.457031 193.648438 C 175.5 192.714844 176.566406 191.8125 177.660156 190.9375 C 178.753906 190.0625 179.867188 189.21875 181.003906 188.40625 C 182.144531 187.589844 183.300781 186.808594 184.480469 186.054688 C 185.660156 185.304688 186.859375 184.582031 188.078125 183.894531 C 189.296875 183.207031 190.535156 182.554688 191.789062 181.933594 C 193.042969 181.3125 194.3125 180.722656 195.597656 180.171875 C 196.882812 179.617188 198.179688 179.101562 199.492188 178.617188 C 200.808594 178.132812 202.132812 177.6875 203.46875 177.273438 C 204.804688 176.863281 206.152344 176.488281 207.511719 176.148438 C 208.867188 175.808594 210.234375 175.507812 211.609375 175.242188 C 212.980469 174.972656 214.359375 174.746094 215.746094 174.554688 C 217.132812 174.363281 218.523438 174.207031 219.917969 174.089844 C 221.3125 173.972656 222.707031 173.894531 224.105469 173.851562 C 225.503906 173.8125 226.902344 173.808594 228.304688 173.839844 C 229.703125 173.875 231.097656 173.945312 232.492188 174.054688 C 233.886719 174.160156 235.28125 174.308594 236.667969 174.492188 C 238.054688 174.671875 239.433594 174.894531 240.808594 175.152344 C 242.183594 175.410156 243.554688 175.703125 244.914062 176.035156 C 246.273438 176.367188 247.621094 176.734375 248.960938 177.136719 C 250.300781 177.539062 251.628906 177.980469 252.945312 178.453125 C 254.261719 178.929688 255.5625 179.441406 256.851562 179.984375 C 258.140625 180.53125 259.414062 181.109375 260.671875 181.722656 C 261.929688 182.335938 263.167969 182.984375 264.390625 183.664062 C 265.613281 184.34375 266.816406 185.054688 268 185.800781 C 269.1875 186.546875 270.351562 187.320312 271.492188 188.128906 C 272.636719 188.9375 273.753906 189.773438 274.851562 190.640625 C 275.949219 191.511719 277.023438 192.40625 278.074219 193.332031 C 279.121094 194.257812 280.144531 195.210938 281.144531 196.191406 C 282.144531 197.171875 283.113281 198.179688 284.058594 199.210938 C 285 200.242188 285.917969 201.300781 286.804688 202.382812 C 287.691406 203.464844 288.550781 204.570312 289.375 205.699219 C 290.203125 206.824219 291 207.976562 291.765625 209.144531 C 292.535156 210.316406 293.265625 211.507812 293.96875 212.71875 C 294.671875 213.929688 295.339844 215.15625 295.976562 216.402344 C 296.613281 217.648438 297.214844 218.914062 297.78125 220.191406 C 298.351562 221.46875 298.882812 222.761719 299.382812 224.070312 C 299.878906 225.378906 300.34375 226.699219 300.769531 228.03125 C 301.199219 229.363281 301.589844 230.703125 301.945312 232.058594 C 302.300781 233.410156 302.617188 234.773438 302.898438 236.144531 C 303.183594 237.515625 303.425781 238.890625 303.636719 240.273438 C 303.84375 241.660156 304.015625 243.046875 304.148438 244.441406 C 304.28125 245.832031 304.375 247.226562 304.433594 248.625 C 304.492188 250.023438 304.511719 251.421875 304.496094 252.820312 C 304.480469 254.21875 304.425781 255.617188 304.332031 257.015625 C 304.242188 258.410156 304.113281 259.804688 303.945312 261.191406 C 303.777344 262.582031 303.574219 263.964844 303.332031 265.34375 C 303.089844 266.722656 302.8125 268.09375 302.496094 269.457031 C 302.183594 270.820312 301.832031 272.171875 301.441406 273.515625 C 301.054688 274.859375 300.632812 276.195312 300.171875 277.515625 C 299.710938 278.835938 299.21875 280.144531 298.6875 281.441406 C 298.15625 282.734375 297.59375 284.015625 296.996094 285.28125 C 296.394531 286.542969 295.765625 287.792969 295.097656 289.023438 C 294.433594 290.253906 293.734375 291.464844 293.003906 292.65625 C 292.273438 293.851562 291.507812 295.023438 290.714844 296.175781 C 289.921875 297.328125 289.097656 298.457031 288.242188 299.566406 C 287.386719 300.671875 286.503906 301.757812 285.589844 302.816406 C 284.675781 303.878906 283.738281 304.914062 282.769531 305.921875 C 281.800781 306.929688 280.804688 307.914062 279.78125 308.871094 C 278.761719 309.828125 277.714844 310.753906 276.644531 311.652344 C 275.570312 312.554688 274.476562 313.425781 273.359375 314.265625 C 272.238281 315.105469 271.101562 315.917969 269.9375 316.695312 C 268.777344 317.476562 267.59375 318.222656 266.390625 318.941406 C 265.191406 319.65625 263.96875 320.339844 262.730469 320.988281 C 261.492188 321.640625 260.238281 322.257812 258.964844 322.839844 C 257.691406 323.421875 256.40625 323.972656 255.105469 324.484375 C 253.804688 325 252.488281 325.476562 251.164062 325.921875 C 249.835938 326.363281 248.496094 326.769531 247.148438 327.140625 C 245.800781 327.511719 244.441406 327.847656 243.074219 328.144531 C 241.707031 328.445312 240.332031 328.703125 238.953125 328.929688 C 237.570312 329.152344 236.183594 329.339844 234.792969 329.488281 C 233.402344 329.640625 232.007812 329.75 230.609375 329.828125 C 229.214844 329.902344 227.816406 329.9375 226.417969 329.9375 Z M 226.410156 329.9375 " fill-opacity="1" fill-rule="nonzero"/></g><g clip-path="url(#e86027dcb6)"><g clip-path="url(#fb9cff196b)"><g clip-path="url(#3c317cdc02)"><path fill="#efdbbd" d="M 159.542969 204.410156 C 158.925781 205.160156 158.289062 205.894531 157.636719 206.613281 C 156.980469 207.328125 156.308594 208.03125 155.617188 208.714844 C 154.925781 209.398438 154.21875 210.0625 153.492188 210.707031 C 152.765625 211.355469 152.023438 211.980469 151.265625 212.589844 C 150.507812 213.195312 149.734375 213.785156 148.945312 214.351562 C 148.15625 214.921875 147.351562 215.46875 146.535156 215.992188 C 145.71875 216.519531 144.890625 217.023438 144.046875 217.507812 C 143.203125 217.988281 142.347656 218.449219 141.480469 218.890625 C 140.613281 219.328125 139.734375 219.742188 138.847656 220.136719 C 137.957031 220.53125 137.058594 220.898438 136.152344 221.246094 C 135.242188 221.59375 134.328125 221.914062 133.402344 222.214844 C 132.476562 222.511719 131.546875 222.789062 130.605469 223.039062 C 129.667969 223.289062 128.722656 223.515625 127.773438 223.71875 C 126.820312 223.917969 125.867188 224.09375 124.90625 224.246094 C 123.949219 224.398438 122.984375 224.527344 122.019531 224.628906 C 121.050781 224.730469 120.082031 224.808594 119.113281 224.859375 C 118.140625 224.910156 117.171875 224.9375 116.199219 224.941406 C 115.226562 224.941406 114.257812 224.917969 113.285156 224.867188 C 112.316406 224.820312 111.347656 224.746094 110.378906 224.648438 C 109.414062 224.546875 108.449219 224.421875 107.488281 224.273438 C 106.527344 224.125 105.574219 223.953125 104.621094 223.753906 C 103.671875 223.554688 102.726562 223.332031 101.785156 223.082031 C 100.847656 222.835938 99.914062 222.5625 98.988281 222.265625 C 98.0625 221.972656 97.144531 221.652344 96.234375 221.308594 C 95.328125 220.964844 94.425781 220.597656 93.539062 220.207031 C 92.648438 219.816406 91.769531 219.402344 90.898438 218.964844 C 90.03125 218.53125 89.175781 218.074219 88.332031 217.59375 C 87.484375 217.113281 86.652344 216.609375 85.835938 216.085938 C 85.015625 215.5625 84.210938 215.019531 83.421875 214.453125 C 82.632812 213.886719 81.855469 213.300781 81.097656 212.695312 C 80.335938 212.089844 79.59375 211.464844 78.863281 210.820312 C 78.136719 210.179688 77.425781 209.515625 76.734375 208.835938 C 76.039062 208.152344 75.363281 207.453125 74.707031 206.738281 C 74.050781 206.023438 73.414062 205.289062 72.792969 204.542969 C 72.175781 203.792969 71.574219 203.027344 70.996094 202.246094 C 70.417969 201.46875 69.855469 200.671875 69.320312 199.863281 C 68.78125 199.054688 68.265625 198.230469 67.769531 197.394531 C 67.273438 196.558594 66.800781 195.710938 66.347656 194.851562 C 65.898438 193.988281 65.46875 193.117188 65.0625 192.234375 C 64.65625 191.351562 64.273438 190.460938 63.914062 189.558594 C 63.550781 188.65625 63.214844 187.742188 62.902344 186.824219 C 62.589844 185.902344 62.300781 184.976562 62.039062 184.039062 C 61.773438 183.105469 61.53125 182.164062 61.316406 181.214844 C 61.101562 180.269531 60.910156 179.316406 60.742188 178.359375 C 60.578125 177.402344 60.4375 176.441406 60.320312 175.476562 C 60.203125 174.511719 60.113281 173.542969 60.046875 172.574219 C 59.980469 171.605469 59.9375 170.632812 59.921875 169.664062 C 59.90625 168.691406 59.914062 167.71875 59.949219 166.75 C 59.984375 165.777344 60.042969 164.808594 60.128906 163.839844 C 60.214844 162.871094 60.324219 161.90625 60.457031 160.945312 C 60.59375 159.980469 60.753906 159.023438 60.9375 158.070312 C 61.121094 157.113281 61.332031 156.167969 61.566406 155.222656 C 61.800781 154.28125 62.058594 153.34375 62.339844 152.414062 C 62.621094 151.484375 62.929688 150.5625 63.257812 149.648438 C 63.589844 148.734375 63.941406 147.828125 64.320312 146.933594 C 64.695312 146.039062 65.097656 145.152344 65.519531 144.277344 C 65.941406 143.402344 66.386719 142.539062 66.855469 141.6875 C 67.324219 140.835938 67.8125 139.996094 68.324219 139.171875 C 68.835938 138.34375 69.367188 137.53125 69.921875 136.734375 C 70.476562 135.933594 71.050781 135.148438 71.644531 134.378906 C 72.238281 133.613281 72.851562 132.859375 73.484375 132.121094 C 74.117188 131.382812 74.769531 130.664062 75.441406 129.960938 C 76.109375 129.257812 76.800781 128.570312 77.503906 127.90625 C 78.210938 127.238281 78.933594 126.589844 79.675781 125.957031 L 84.957031 121.457031 L 93.957031 132.027344 L 88.675781 136.527344 C 87.578125 137.457031 86.53125 138.445312 85.535156 139.480469 C 84.539062 140.519531 83.597656 141.605469 82.710938 142.742188 C 81.824219 143.875 81 145.050781 80.234375 146.269531 C 79.46875 147.488281 78.765625 148.742188 78.128906 150.035156 C 77.492188 151.324219 76.921875 152.644531 76.417969 153.992188 C 75.914062 155.339844 75.480469 156.710938 75.117188 158.105469 C 74.753906 159.496094 74.464844 160.902344 74.246094 162.324219 C 74.023438 163.75 73.878906 165.179688 73.804688 166.617188 C 73.730469 168.050781 73.730469 169.488281 73.804688 170.925781 C 73.875 172.363281 74.023438 173.792969 74.242188 175.21875 C 74.460938 176.640625 74.75 178.046875 75.113281 179.441406 C 75.472656 180.832031 75.90625 182.203125 76.410156 183.550781 C 76.910156 184.902344 77.480469 186.21875 78.117188 187.511719 C 78.753906 188.800781 79.453125 190.058594 80.21875 191.277344 C 80.984375 192.496094 81.808594 193.671875 82.695312 194.808594 C 83.578125 195.941406 84.519531 197.027344 85.515625 198.066406 C 86.511719 199.105469 87.554688 200.09375 88.652344 201.027344 C 89.75 201.957031 90.890625 202.832031 92.074219 203.648438 C 93.261719 204.464844 94.484375 205.21875 95.746094 205.910156 C 97.007812 206.601562 98.304688 207.226562 99.628906 207.785156 C 100.957031 208.34375 102.308594 208.832031 103.683594 209.253906 C 105.058594 209.675781 106.453125 210.027344 107.863281 210.304688 C 109.277344 210.585938 110.699219 210.789062 112.132812 210.925781 C 113.566406 211.058594 115 211.121094 116.441406 211.105469 C 117.878906 211.09375 119.3125 211.007812 120.746094 210.851562 C 122.175781 210.691406 123.59375 210.460938 125 210.15625 C 126.40625 209.851562 127.792969 209.476562 129.164062 209.03125 C 130.53125 208.585938 131.875 208.074219 133.191406 207.492188 C 134.507812 206.910156 135.789062 206.261719 137.039062 205.550781 C 138.289062 204.835938 139.5 204.0625 140.671875 203.226562 C 141.84375 202.386719 142.96875 201.496094 144.046875 200.542969 C 145.128906 199.589844 146.15625 198.589844 147.132812 197.53125 C 148.113281 196.476562 149.035156 195.371094 149.898438 194.222656 C 150.761719 193.070312 151.566406 191.878906 152.3125 190.648438 C 153.054688 189.414062 153.734375 188.148438 154.347656 186.847656 C 154.960938 185.546875 155.507812 184.214844 155.988281 182.859375 C 156.464844 181.503906 156.875 180.125 157.210938 178.726562 C 157.550781 177.324219 157.816406 175.914062 158.007812 174.488281 C 158.203125 173.0625 158.324219 171.628906 158.371094 170.191406 C 158.417969 168.753906 158.394531 167.316406 158.296875 165.878906 C 158.195312 164.445312 158.023438 163.015625 157.78125 161.597656 C 157.535156 160.179688 157.21875 158.777344 156.832031 157.390625 C 156.445312 156.007812 155.988281 154.644531 155.460938 153.304688 C 154.933594 151.964844 154.34375 150.65625 153.683594 149.375 C 153.023438 148.097656 152.300781 146.855469 151.511719 145.652344 C 150.726562 144.445312 149.878906 143.285156 148.972656 142.164062 C 148.070312 141.046875 147.109375 139.976562 146.09375 138.953125 C 145.082031 137.933594 144.015625 136.96875 142.902344 136.054688 C 138.050781 132.054688 132.570312 129.285156 126.46875 127.75 L 119.746094 126.054688 L 123.144531 112.597656 L 129.875 114.292969 C 131.015625 114.585938 132.144531 114.910156 133.265625 115.269531 C 134.386719 115.628906 135.492188 116.023438 136.589844 116.453125 C 137.683594 116.882812 138.765625 117.347656 139.832031 117.847656 C 140.898438 118.34375 141.945312 118.875 142.980469 119.4375 C 144.011719 120 145.027344 120.597656 146.023438 121.222656 C 147.015625 121.851562 147.992188 122.507812 148.945312 123.199219 C 149.902344 123.886719 150.832031 124.605469 151.742188 125.351562 C 152.652344 126.097656 153.535156 126.875 154.394531 127.675781 C 155.257812 128.476562 156.089844 129.308594 156.898438 130.164062 C 157.707031 131.015625 158.488281 131.898438 159.242188 132.800781 C 159.996094 133.703125 160.71875 134.632812 161.414062 135.582031 C 162.109375 136.53125 162.773438 137.5 163.40625 138.492188 C 164.042969 139.484375 164.644531 140.492188 165.214844 141.523438 C 165.785156 142.550781 166.324219 143.597656 166.828125 144.660156 C 167.332031 145.722656 167.804688 146.800781 168.242188 147.890625 C 168.679688 148.984375 169.082031 150.089844 169.449219 151.207031 C 169.816406 152.324219 170.152344 153.453125 170.449219 154.589844 C 170.746094 155.730469 171.007812 156.875 171.230469 158.03125 C 171.457031 159.1875 171.644531 160.347656 171.796875 161.515625 C 171.949219 162.679688 172.066406 163.851562 172.144531 165.027344 C 172.222656 166.199219 172.265625 167.375 172.269531 168.550781 C 172.273438 169.726562 172.242188 170.902344 172.175781 172.078125 C 172.105469 173.253906 172 174.425781 171.855469 175.59375 C 171.714844 176.761719 171.535156 177.921875 171.320312 179.078125 C 171.105469 180.238281 170.855469 181.386719 170.566406 182.527344 C 170.277344 183.667969 169.957031 184.796875 169.597656 185.917969 C 169.238281 187.039062 168.84375 188.148438 168.417969 189.242188 C 167.988281 190.339844 167.527344 191.421875 167.03125 192.488281 C 166.535156 193.554688 166.007812 194.605469 165.445312 195.640625 C 164.882812 196.671875 164.289062 197.6875 163.664062 198.683594 C 163.039062 199.683594 162.382812 200.65625 161.695312 201.613281 C 161.007812 202.570312 160.292969 203.5 159.546875 204.410156 Z M 159.542969 204.410156 " fill-opacity="1" fill-rule="nonzero"/></g></g></g><g clip-path="url(#9797240a19)"><g clip-path="url(#aa2082190e)"><g clip-path="url(#9f081aab26)"><path fill="#efdbbd" d="M 198.542969 156.835938 C 196.339844 159.527344 193.90625 161.988281 191.242188 164.222656 L 185.925781 168.683594 L 177.007812 158.046875 L 182.324219 153.589844 C 182.925781 153.082031 183.511719 152.5625 184.082031 152.023438 C 184.652344 151.488281 185.210938 150.933594 185.75 150.367188 C 186.292969 149.796875 186.816406 149.214844 187.324219 148.617188 C 187.832031 148.019531 188.324219 147.40625 188.796875 146.78125 C 189.273438 146.15625 189.730469 145.519531 190.167969 144.867188 C 190.605469 144.21875 191.027344 143.554688 191.429688 142.882812 C 191.832031 142.207031 192.214844 141.523438 192.578125 140.828125 C 192.941406 140.132812 193.285156 139.429688 193.609375 138.714844 C 193.933594 138 194.238281 137.277344 194.523438 136.546875 C 194.808594 135.8125 195.070312 135.074219 195.3125 134.328125 C 195.558594 133.582031 195.78125 132.832031 195.980469 132.070312 C 196.183594 131.3125 196.363281 130.550781 196.519531 129.78125 C 196.679688 129.011719 196.816406 128.242188 196.933594 127.464844 C 197.046875 126.6875 197.140625 125.910156 197.214844 125.128906 C 197.285156 124.347656 197.335938 123.566406 197.367188 122.78125 C 197.394531 121.996094 197.402344 121.210938 197.386719 120.425781 C 197.371094 119.644531 197.335938 118.859375 197.277344 118.078125 C 197.21875 117.292969 197.136719 116.515625 197.035156 115.734375 C 196.933594 114.957031 196.808594 114.183594 196.664062 113.414062 C 196.519531 112.640625 196.351562 111.875 196.164062 111.113281 C 195.976562 110.351562 195.765625 109.59375 195.535156 108.84375 C 195.308594 108.09375 195.054688 107.351562 194.785156 106.617188 C 194.511719 105.878906 194.222656 105.152344 193.910156 104.429688 C 193.597656 103.710938 193.265625 103 192.914062 102.296875 C 192.5625 101.597656 192.191406 100.90625 191.800781 100.226562 C 191.410156 99.542969 191.003906 98.875 190.574219 98.214844 C 190.148438 97.558594 189.703125 96.914062 189.238281 96.28125 C 188.777344 95.644531 188.296875 95.027344 187.796875 94.421875 C 187.300781 93.8125 186.785156 93.222656 186.253906 92.644531 C 185.722656 92.066406 185.175781 91.503906 184.617188 90.957031 C 184.054688 90.40625 183.476562 89.875 182.882812 89.363281 C 182.292969 88.847656 181.6875 88.347656 181.066406 87.867188 C 180.449219 87.382812 179.816406 86.921875 179.171875 86.472656 C 178.523438 86.027344 177.867188 85.601562 177.199219 85.191406 C 176.527344 84.78125 175.847656 84.390625 175.15625 84.019531 C 174.46875 83.644531 173.765625 83.292969 173.054688 82.960938 C 172.34375 82.628906 171.625 82.316406 170.898438 82.023438 C 170.167969 81.730469 169.433594 81.457031 168.691406 81.207031 C 167.949219 80.953125 167.199219 80.722656 166.441406 80.511719 C 165.6875 80.304688 164.925781 80.113281 164.15625 79.945312 C 163.390625 79.777344 162.621094 79.632812 161.847656 79.507812 C 161.070312 79.382812 160.292969 79.28125 159.511719 79.199219 C 158.734375 79.117188 157.949219 79.058594 157.167969 79.019531 C 156.382812 78.984375 155.597656 78.964844 154.8125 78.972656 C 154.03125 78.976562 153.246094 79.007812 152.460938 79.054688 C 151.679688 79.105469 150.898438 79.175781 150.121094 79.269531 C 149.339844 79.363281 148.5625 79.476562 147.792969 79.613281 C 147.019531 79.75 146.25 79.90625 145.484375 80.085938 C 144.722656 80.265625 143.964844 80.464844 143.210938 80.6875 C 142.457031 80.910156 141.710938 81.148438 140.972656 81.414062 C 140.234375 81.675781 139.503906 81.960938 138.777344 82.261719 C 138.054688 82.566406 137.339844 82.890625 136.636719 83.234375 C 135.929688 83.578125 135.234375 83.941406 134.546875 84.320312 C 133.863281 84.703125 133.1875 85.105469 132.527344 85.523438 C 131.863281 85.945312 131.210938 86.382812 130.574219 86.835938 C 129.933594 87.292969 129.308594 87.765625 128.695312 88.257812 C 128.085938 88.75 127.488281 89.257812 126.902344 89.78125 C 126.320312 90.304688 125.75 90.84375 125.195312 91.398438 C 124.640625 91.957031 124.105469 92.527344 123.582031 93.113281 C 123.058594 93.699219 122.554688 94.296875 122.066406 94.910156 C 121.578125 95.527344 121.105469 96.152344 120.652344 96.792969 C 120.199219 97.433594 119.761719 98.085938 119.34375 98.75 C 118.925781 99.414062 118.527344 100.089844 118.148438 100.777344 C 117.769531 101.460938 117.410156 102.160156 117.066406 102.867188 C 116.726562 103.574219 116.40625 104.289062 116.105469 105.011719 C 115.804688 105.738281 115.523438 106.46875 115.261719 107.210938 C 115 107.949219 114.761719 108.695312 114.542969 109.449219 C 114.324219 110.203125 114.125 110.964844 113.949219 111.726562 C 113.773438 112.492188 113.617188 113.261719 113.484375 114.035156 C 113.351562 114.808594 113.238281 115.585938 113.148438 116.363281 C 113.058594 117.144531 112.988281 117.925781 112.941406 118.707031 C 112.894531 119.492188 112.871094 120.273438 112.867188 121.058594 C 112.863281 121.84375 112.882812 122.628906 112.921875 123.410156 C 112.964844 124.195312 113.027344 124.976562 113.109375 125.757812 C 113.195312 126.539062 113.300781 127.316406 113.425781 128.089844 C 113.554688 128.863281 113.703125 129.632812 113.871094 130.398438 C 114.042969 131.164062 114.234375 131.925781 114.445312 132.683594 C 114.660156 133.4375 114.894531 134.1875 115.148438 134.929688 C 115.402344 135.671875 115.675781 136.40625 115.972656 137.132812 C 116.265625 137.859375 116.582031 138.578125 116.917969 139.289062 C 117.25 139.996094 117.605469 140.695312 117.980469 141.386719 C 118.355469 142.074219 118.746094 142.753906 119.160156 143.421875 C 119.570312 144.089844 120 144.746094 120.449219 145.390625 C 120.898438 146.035156 121.363281 146.664062 121.847656 147.28125 C 122.332031 147.902344 122.832031 148.503906 123.351562 149.09375 C 123.867188 149.683594 124.398438 150.261719 124.949219 150.820312 C 125.5 151.378906 126.0625 151.925781 126.644531 152.453125 C 127.222656 152.984375 127.816406 153.496094 128.425781 153.992188 C 129.03125 154.488281 129.65625 154.964844 130.289062 155.425781 C 130.925781 155.886719 131.570312 156.332031 132.230469 156.757812 C 132.890625 157.183594 133.5625 157.589844 134.242188 157.976562 C 134.925781 158.363281 135.617188 158.730469 136.320312 159.082031 C 137.023438 159.429688 137.734375 159.761719 138.457031 160.070312 C 139.175781 160.378906 139.90625 160.667969 140.644531 160.9375 C 141.378906 161.207031 142.125 161.453125 142.875 161.683594 C 143.625 161.910156 144.382812 162.117188 145.144531 162.300781 L 151.890625 163.941406 L 148.613281 177.425781 L 141.871094 175.789062 C 140.894531 175.550781 139.921875 175.289062 138.960938 175 C 137.996094 174.707031 137.039062 174.394531 136.09375 174.050781 C 135.144531 173.710938 134.210938 173.34375 133.28125 172.953125 C 132.355469 172.5625 131.4375 172.144531 130.535156 171.703125 C 129.628906 171.261719 128.738281 170.796875 127.855469 170.308594 C 126.976562 169.820312 126.109375 169.308594 125.257812 168.773438 C 124.40625 168.238281 123.570312 167.679688 122.746094 167.097656 C 121.925781 166.519531 121.117188 165.917969 120.328125 165.292969 C 119.539062 164.667969 118.765625 164.023438 118.011719 163.359375 C 117.253906 162.695312 116.519531 162.007812 115.800781 161.304688 C 115.082031 160.597656 114.382812 159.875 113.703125 159.132812 C 113.023438 158.390625 112.363281 157.628906 111.726562 156.851562 C 111.085938 156.074219 110.46875 155.28125 109.875 154.46875 C 109.277344 153.65625 108.703125 152.832031 108.152344 151.988281 C 107.601562 151.148438 107.074219 150.289062 106.566406 149.421875 C 106.0625 148.550781 105.582031 147.667969 105.125 146.769531 C 104.664062 145.875 104.230469 144.964844 103.824219 144.046875 C 103.414062 143.125 103.03125 142.195312 102.671875 141.257812 C 102.3125 140.316406 101.976562 139.367188 101.671875 138.410156 C 101.363281 137.449219 101.078125 136.484375 100.824219 135.511719 C 100.566406 134.539062 100.339844 133.558594 100.132812 132.570312 C 99.929688 131.585938 99.753906 130.597656 99.605469 129.601562 C 99.453125 128.605469 99.332031 127.605469 99.234375 126.605469 C 99.136719 125.601562 99.070312 124.597656 99.027344 123.59375 C 98.984375 122.589844 98.96875 121.582031 98.980469 120.574219 C 98.992188 119.570312 99.03125 118.5625 99.09375 117.558594 C 99.160156 116.554688 99.253906 115.554688 99.375 114.554688 C 99.492188 113.554688 99.640625 112.558594 99.8125 111.566406 C 99.984375 110.574219 100.183594 109.589844 100.410156 108.609375 C 100.636719 107.628906 100.890625 106.65625 101.167969 105.6875 C 101.445312 104.71875 101.75 103.761719 102.082031 102.808594 C 102.410156 101.859375 102.765625 100.917969 103.148438 99.984375 C 103.527344 99.054688 103.933594 98.132812 104.363281 97.222656 C 104.792969 96.3125 105.246094 95.414062 105.726562 94.53125 C 106.203125 93.644531 106.707031 92.773438 107.230469 91.914062 C 107.757812 91.054688 108.304688 90.210938 108.875 89.382812 C 109.445312 88.554688 110.039062 87.742188 110.652344 86.945312 C 111.269531 86.148438 111.902344 85.367188 112.558594 84.601562 C 113.214844 83.839844 113.894531 83.09375 114.589844 82.367188 C 115.285156 81.640625 116 80.933594 116.734375 80.246094 C 117.46875 79.558594 118.222656 78.890625 118.992188 78.242188 C 119.765625 77.59375 120.550781 76.96875 121.355469 76.363281 C 122.160156 75.757812 122.980469 75.175781 123.8125 74.613281 C 124.648438 74.050781 125.5 73.511719 126.363281 72.996094 C 127.230469 72.480469 128.105469 71.992188 128.996094 71.523438 C 129.886719 71.054688 130.789062 70.609375 131.707031 70.191406 C 132.621094 69.769531 133.546875 69.375 134.480469 69.003906 C 135.417969 68.632812 136.363281 68.289062 137.316406 67.96875 C 138.273438 67.652344 139.234375 67.359375 140.203125 67.089844 C 141.175781 66.824219 142.152344 66.582031 143.136719 66.367188 C 144.117188 66.152344 145.105469 65.964844 146.101562 65.800781 C 147.09375 65.640625 148.089844 65.503906 149.089844 65.398438 C 150.09375 65.289062 151.09375 65.207031 152.101562 65.152344 C 153.105469 65.097656 154.109375 65.070312 155.117188 65.070312 C 156.125 65.070312 157.128906 65.097656 158.132812 65.152344 C 159.140625 65.207031 160.144531 65.285156 161.144531 65.394531 C 162.144531 65.5 163.140625 65.636719 164.132812 65.796875 C 165.128906 65.960938 166.117188 66.148438 167.101562 66.363281 C 168.082031 66.578125 169.058594 66.816406 170.03125 67.085938 C 171 67.351562 171.964844 67.644531 172.917969 67.964844 C 173.871094 68.28125 174.816406 68.625 175.753906 68.996094 C 176.691406 69.367188 177.617188 69.761719 178.53125 70.179688 C 179.445312 70.597656 180.347656 71.042969 181.238281 71.511719 C 182.132812 71.980469 183.007812 72.472656 183.875 72.984375 C 184.738281 73.5 185.589844 74.039062 186.425781 74.601562 C 187.261719 75.160156 188.078125 75.746094 188.882812 76.347656 C 189.6875 76.953125 190.476562 77.582031 191.246094 78.226562 C 192.015625 78.875 192.769531 79.542969 193.503906 80.230469 C 194.238281 80.917969 194.957031 81.625 195.652344 82.351562 C 196.347656 83.078125 197.027344 83.824219 197.683594 84.585938 C 198.339844 85.347656 198.976562 86.128906 199.589844 86.925781 C 200.203125 87.722656 200.796875 88.535156 201.367188 89.363281 C 201.941406 90.191406 202.488281 91.035156 203.011719 91.894531 C 203.539062 92.753906 204.042969 93.625 204.519531 94.511719 C 205 95.394531 205.453125 96.292969 205.882812 97.203125 C 206.316406 98.113281 206.722656 99.03125 207.101562 99.964844 C 207.484375 100.894531 207.839844 101.835938 208.167969 102.789062 C 208.5 103.738281 208.804688 104.699219 209.082031 105.664062 C 209.363281 106.632812 209.613281 107.605469 209.839844 108.585938 C 210.066406 109.566406 210.269531 110.554688 210.441406 111.542969 C 210.613281 112.535156 210.761719 113.53125 210.882812 114.53125 C 211 115.53125 211.09375 116.53125 211.160156 117.535156 C 211.226562 118.539062 211.265625 119.546875 211.277344 120.550781 C 211.289062 121.558594 211.273438 122.566406 211.234375 123.570312 C 211.191406 124.578125 211.121094 125.582031 211.027344 126.582031 C 210.929688 127.582031 210.808594 128.582031 210.65625 129.578125 C 210.507812 130.574219 210.332031 131.5625 210.128906 132.550781 C 209.925781 133.535156 209.695312 134.515625 209.441406 135.488281 C 209.183594 136.460938 208.902344 137.429688 208.59375 138.386719 C 208.289062 139.34375 207.953125 140.292969 207.59375 141.234375 C 207.238281 142.175781 206.851562 143.105469 206.445312 144.023438 C 206.035156 144.945312 205.601562 145.851562 205.144531 146.75 C 204.6875 147.644531 204.207031 148.527344 203.699219 149.398438 C 203.195312 150.269531 202.667969 151.125 202.117188 151.96875 C 201.566406 152.8125 200.992188 153.636719 200.398438 154.449219 C 199.800781 155.261719 199.183594 156.054688 198.546875 156.835938 Z M 198.542969 156.835938 " fill-opacity="1" fill-rule="nonzero"/></g></g></g><g clip-path="url(#fe53c7ec6e)"><g clip-path="url(#4bf460830a)"><g clip-path="url(#6d88afd943)"><path fill="#c1cefe" d="M 269.996094 90.539062 C 271.199219 91.15625 272.382812 91.804688 273.550781 92.484375 C 274.71875 93.164062 275.867188 93.875 276.996094 94.613281 C 278.128906 95.351562 279.238281 96.121094 280.328125 96.917969 C 281.421875 97.714844 282.492188 98.539062 283.539062 99.390625 C 284.585938 100.242188 285.613281 101.121094 286.613281 102.027344 C 287.617188 102.929688 288.597656 103.863281 289.550781 104.816406 C 290.503906 105.773438 291.433594 106.753906 292.335938 107.757812 C 293.242188 108.761719 294.117188 109.789062 294.96875 110.839844 C 295.816406 111.890625 296.640625 112.960938 297.433594 114.054688 C 298.230469 115.144531 298.996094 116.257812 299.734375 117.390625 C 300.46875 118.523438 301.175781 119.671875 301.855469 120.84375 C 302.53125 122.011719 303.175781 123.195312 303.792969 124.398438 C 304.410156 125.601562 304.992188 126.820312 305.546875 128.050781 C 306.097656 129.285156 306.617188 130.53125 307.105469 131.789062 C 307.59375 133.050781 308.050781 134.320312 308.472656 135.605469 C 308.894531 136.886719 309.28125 138.179688 309.636719 139.484375 C 309.992188 140.789062 310.3125 142.101562 310.597656 143.421875 C 310.886719 144.742188 311.136719 146.066406 311.355469 147.398438 C 311.574219 148.734375 311.757812 150.070312 311.90625 151.414062 C 312.054688 152.757812 312.167969 154.101562 312.246094 155.453125 C 312.328125 156.800781 312.371094 158.148438 312.378906 159.5 C 312.386719 160.851562 312.363281 162.203125 312.300781 163.550781 C 312.238281 164.902344 312.144531 166.246094 312.011719 167.59375 C 311.878906 168.9375 311.714844 170.277344 311.515625 171.613281 C 311.3125 172.949219 311.078125 174.277344 310.808594 175.601562 C 310.539062 176.925781 310.234375 178.242188 309.898438 179.550781 C 309.558594 180.859375 309.1875 182.15625 308.78125 183.445312 C 308.375 184.734375 307.9375 186.011719 307.46875 187.277344 C 306.996094 188.542969 306.492188 189.796875 305.953125 191.035156 C 305.417969 192.273438 304.851562 193.5 304.25 194.710938 C 303.648438 195.921875 303.019531 197.113281 302.355469 198.292969 C 301.695312 199.46875 301.003906 200.628906 300.28125 201.769531 C 299.558594 202.914062 298.808594 204.035156 298.027344 205.136719 C 297.246094 206.242188 296.4375 207.320312 295.601562 208.382812 C 294.765625 209.445312 293.902344 210.480469 293.011719 211.5 C 292.121094 212.515625 291.203125 213.507812 290.261719 214.476562 C 289.320312 215.441406 288.355469 216.386719 287.363281 217.304688 C 286.371094 218.222656 285.359375 219.113281 284.320312 219.980469 C 283.285156 220.847656 282.226562 221.683594 281.144531 222.496094 C 280.066406 223.304688 278.964844 224.089844 277.84375 224.84375 C 276.722656 225.597656 275.582031 226.320312 274.421875 227.015625 C 273.265625 227.710938 272.089844 228.375 270.894531 229.007812 C 269.703125 229.640625 268.492188 230.242188 267.269531 230.8125 C 266.042969 231.382812 264.804688 231.921875 263.554688 232.429688 C 262.300781 232.9375 261.039062 233.410156 259.761719 233.851562 C 258.484375 234.292969 257.195312 234.699219 255.898438 235.074219 C 254.601562 235.449219 253.292969 235.789062 251.976562 236.09375 C 250.660156 236.402344 249.339844 236.671875 248.007812 236.910156 C 246.679688 237.148438 245.34375 237.351562 244.003906 237.519531 C 242.664062 237.6875 241.320312 237.824219 239.972656 237.921875 C 238.625 238.019531 237.277344 238.085938 235.925781 238.113281 C 234.574219 238.140625 233.222656 238.136719 231.875 238.09375 C 230.523438 238.054688 229.175781 237.976562 227.828125 237.867188 C 226.484375 237.753906 225.140625 237.609375 223.800781 237.425781 C 222.460938 237.246094 221.128906 237.03125 219.800781 236.78125 C 218.472656 236.53125 217.152344 236.246094 215.839844 235.929688 C 214.527344 235.609375 213.226562 235.257812 211.929688 234.871094 C 210.636719 234.484375 209.351562 234.066406 208.078125 233.613281 C 206.804688 233.160156 205.546875 232.675781 204.296875 232.15625 C 203.050781 231.640625 201.816406 231.089844 200.597656 230.507812 C 199.378906 229.925781 198.175781 229.3125 196.988281 228.667969 C 195.800781 228.023438 194.632812 227.347656 193.480469 226.644531 C 192.328125 225.9375 191.195312 225.203125 190.078125 224.441406 C 188.964844 223.675781 187.871094 222.882812 186.800781 222.0625 L 179.136719 216.199219 L 190.859375 200.875 L 198.523438 206.734375 C 199.316406 207.34375 200.125 207.933594 200.949219 208.5 C 201.769531 209.066406 202.609375 209.613281 203.460938 210.136719 C 204.3125 210.660156 205.175781 211.164062 206.050781 211.644531 C 206.925781 212.125 207.816406 212.582031 208.714844 213.019531 C 209.617188 213.453125 210.527344 213.867188 211.449219 214.253906 C 212.367188 214.644531 213.296875 215.007812 214.238281 215.347656 C 215.179688 215.691406 216.125 216.007812 217.082031 216.300781 C 218.035156 216.59375 219 216.863281 219.96875 217.105469 C 220.9375 217.351562 221.914062 217.570312 222.894531 217.765625 C 223.875 217.957031 224.859375 218.128906 225.847656 218.273438 C 226.839844 218.414062 227.832031 218.535156 228.824219 218.628906 C 229.820312 218.722656 230.816406 218.789062 231.816406 218.832031 C 232.816406 218.875 233.816406 218.890625 234.8125 218.882812 C 235.8125 218.875 236.8125 218.84375 237.808594 218.78125 C 238.808594 218.722656 239.804688 218.640625 240.796875 218.527344 C 241.792969 218.417969 242.78125 218.285156 243.769531 218.125 C 244.753906 217.964844 245.738281 217.777344 246.714844 217.566406 C 247.691406 217.355469 248.664062 217.121094 249.628906 216.863281 C 250.59375 216.601562 251.550781 216.316406 252.503906 216.007812 C 253.453125 215.699219 254.394531 215.367188 255.328125 215.011719 C 256.261719 214.652344 257.1875 214.273438 258.101562 213.871094 C 259.015625 213.464844 259.917969 213.039062 260.8125 212.589844 C 261.703125 212.136719 262.585938 211.667969 263.453125 211.171875 C 264.324219 210.675781 265.179688 210.160156 266.019531 209.621094 C 266.863281 209.082031 267.691406 208.523438 268.503906 207.941406 C 269.316406 207.363281 270.117188 206.761719 270.898438 206.140625 C 271.683594 205.519531 272.449219 204.878906 273.199219 204.21875 C 273.949219 203.554688 274.683594 202.878906 275.398438 202.179688 C 276.113281 201.480469 276.8125 200.765625 277.492188 200.03125 C 278.171875 199.300781 278.832031 198.550781 279.472656 197.78125 C 280.113281 197.015625 280.734375 196.230469 281.335938 195.433594 C 281.9375 194.632812 282.515625 193.820312 283.078125 192.992188 C 283.636719 192.164062 284.175781 191.324219 284.691406 190.46875 C 285.207031 189.609375 285.703125 188.742188 286.175781 187.863281 C 286.648438 186.980469 287.097656 186.089844 287.523438 185.183594 C 287.953125 184.28125 288.355469 183.367188 288.734375 182.441406 C 289.117188 181.519531 289.472656 180.585938 289.804688 179.640625 C 290.140625 178.699219 290.449219 177.75 290.730469 176.789062 C 291.015625 175.832031 291.277344 174.867188 291.511719 173.894531 C 291.746094 172.925781 291.957031 171.945312 292.144531 170.964844 C 292.328125 169.980469 292.488281 168.996094 292.625 168.003906 C 292.757812 167.015625 292.867188 166.023438 292.953125 165.027344 C 293.039062 164.03125 293.097656 163.03125 293.128906 162.03125 C 293.164062 161.035156 293.171875 160.035156 293.15625 159.035156 C 293.136719 158.035156 293.09375 157.035156 293.027344 156.039062 C 292.957031 155.042969 292.863281 154.046875 292.746094 153.054688 C 292.628906 152.0625 292.484375 151.074219 292.3125 150.089844 C 292.144531 149.101562 291.949219 148.121094 291.730469 147.148438 C 291.511719 146.171875 291.269531 145.203125 291 144.238281 C 290.730469 143.277344 290.4375 142.320312 290.121094 141.375 C 289.804688 140.425781 289.460938 139.484375 289.097656 138.554688 C 288.730469 137.625 288.34375 136.703125 287.929688 135.792969 C 287.519531 134.882812 287.082031 133.984375 286.625 133.09375 C 286.167969 132.207031 285.6875 131.328125 285.183594 130.464844 C 284.679688 129.601562 284.15625 128.75 283.609375 127.914062 C 283.066406 127.078125 282.496094 126.253906 281.910156 125.445312 C 281.320312 124.636719 280.714844 123.84375 280.085938 123.066406 C 279.457031 122.289062 278.808594 121.527344 278.140625 120.785156 C 277.472656 120.039062 276.789062 119.3125 276.085938 118.601562 C 275.378906 117.894531 274.660156 117.203125 273.917969 116.53125 C 273.179688 115.855469 272.421875 115.203125 271.648438 114.570312 C 270.878906 113.933594 270.089844 113.320312 269.285156 112.726562 C 268.480469 112.132812 267.664062 111.558594 266.828125 111.007812 C 265.996094 110.457031 265.148438 109.925781 264.289062 109.414062 C 263.429688 108.90625 262.554688 108.421875 261.671875 107.957031 C 260.785156 107.492188 259.886719 107.050781 258.980469 106.628906 C 258.074219 106.210938 257.15625 105.816406 256.226562 105.445312 C 255.300781 105.070312 254.363281 104.722656 253.417969 104.398438 C 252.472656 104.074219 251.519531 103.773438 250.558594 103.5 C 249.597656 103.222656 248.628906 102.972656 247.65625 102.746094 C 246.683594 102.519531 245.703125 102.316406 244.71875 102.140625 C 243.734375 101.964844 242.746094 101.8125 241.757812 101.6875 C 240.765625 101.5625 239.769531 101.460938 238.773438 101.386719 C 237.777344 101.308594 236.777344 101.257812 235.777344 101.234375 C 234.78125 101.210938 233.78125 101.210938 232.78125 101.238281 C 231.78125 101.261719 230.785156 101.316406 229.785156 101.390625 C 228.789062 101.46875 227.796875 101.570312 226.804688 101.699219 C 225.8125 101.828125 224.824219 101.980469 223.84375 102.160156 C 222.859375 102.335938 221.878906 102.539062 220.90625 102.769531 C 219.933594 102.996094 218.964844 103.25 218.007812 103.527344 C 217.046875 103.804688 216.09375 104.105469 215.148438 104.429688 C 214.203125 104.757812 213.265625 105.105469 212.339844 105.480469 C 211.414062 105.855469 210.496094 106.25 209.589844 106.671875 C 208.679688 107.09375 207.785156 107.535156 206.902344 108 C 206.015625 108.46875 205.144531 108.957031 204.285156 109.464844 C 203.425781 109.976562 202.578125 110.507812 201.746094 111.0625 C 200.914062 111.617188 200.097656 112.191406 199.292969 112.785156 C 198.492188 113.378906 197.703125 113.996094 196.933594 114.632812 C 196.160156 115.265625 195.40625 115.921875 194.667969 116.59375 C 193.929688 117.269531 193.207031 117.960938 192.503906 118.671875 C 191.800781 119.382812 191.117188 120.109375 190.453125 120.855469 C 189.785156 121.601562 189.140625 122.363281 188.511719 123.144531 C 187.882812 123.921875 187.277344 124.714844 186.691406 125.523438 C 186.105469 126.332031 185.539062 127.15625 184.992188 127.996094 C 184.449219 128.835938 183.925781 129.6875 183.425781 130.550781 C 182.925781 131.414062 182.445312 132.292969 181.988281 133.183594 C 180.007812 137.019531 178.46875 141.027344 177.378906 145.207031 C 176.285156 149.382812 175.667969 153.632812 175.519531 157.949219 L 175.183594 167.582031 L 155.902344 166.90625 L 156.238281 157.265625 C 156.296875 155.628906 156.40625 154 156.566406 152.371094 C 156.730469 150.746094 156.941406 149.125 157.203125 147.507812 C 157.46875 145.894531 157.78125 144.289062 158.144531 142.695312 C 158.507812 141.101562 158.921875 139.519531 159.386719 137.949219 C 159.847656 136.382812 160.359375 134.828125 160.921875 133.292969 C 161.484375 131.753906 162.089844 130.238281 162.746094 128.738281 C 163.402344 127.242188 164.105469 125.765625 164.855469 124.308594 C 165.601562 122.855469 166.394531 121.425781 167.234375 120.023438 C 168.074219 118.617188 168.953125 117.242188 169.878906 115.890625 C 170.804688 114.542969 171.769531 113.222656 172.777344 111.933594 C 173.785156 110.644531 174.832031 109.390625 175.917969 108.167969 C 177.003906 106.945312 178.128906 105.757812 179.289062 104.605469 C 180.453125 103.453125 181.648438 102.339844 182.878906 101.261719 C 184.109375 100.183594 185.375 99.148438 186.667969 98.148438 C 187.964844 97.152344 189.292969 96.195312 190.648438 95.28125 C 192.003906 94.367188 193.386719 93.496094 194.796875 92.667969 C 196.210938 91.839844 197.644531 91.058594 199.105469 90.320312 C 200.566406 89.582031 202.046875 88.890625 203.550781 88.246094 C 205.054688 87.601562 206.574219 87.007812 208.117188 86.457031 C 209.65625 85.910156 211.214844 85.410156 212.785156 84.957031 C 214.359375 84.507812 215.945312 84.105469 217.542969 83.753906 C 219.136719 83.402344 220.746094 83.101562 222.363281 82.851562 C 223.976562 82.597656 225.601562 82.398438 227.230469 82.25 C 228.859375 82.101562 230.492188 82.003906 232.125 81.957031 C 233.761719 81.910156 235.394531 81.917969 237.03125 81.972656 C 238.664062 82.027344 240.296875 82.136719 241.925781 82.292969 C 243.550781 82.453125 245.175781 82.664062 246.789062 82.921875 C 248.402344 83.183594 250.007812 83.496094 251.605469 83.855469 C 253.199219 84.21875 254.78125 84.628906 256.351562 85.089844 C 257.921875 85.550781 259.472656 86.058594 261.011719 86.617188 C 262.550781 87.175781 264.066406 87.78125 265.566406 88.433594 C 267.066406 89.089844 268.542969 89.789062 270 90.535156 Z M 269.996094 90.539062 " fill-opacity="1" fill-rule="nonzero"/></g></g></g><g clip-path="url(#fb480d3816)"><g clip-path="url(#2ced07bedf)"><g clip-path="url(#c12d9119f4)"><path fill="#c1cefe" d="M 193.921875 51.484375 C 198.222656 53.691406 202.28125 56.277344 206.097656 59.242188 L 213.71875 65.15625 L 201.878906 80.394531 L 194.261719 74.476562 C 193.398438 73.808594 192.519531 73.164062 191.621094 72.546875 C 190.722656 71.925781 189.808594 71.332031 188.878906 70.765625 C 187.945312 70.195312 187 69.652344 186.039062 69.136719 C 185.078125 68.621094 184.101562 68.132812 183.113281 67.671875 C 182.125 67.210938 181.125 66.777344 180.113281 66.371094 C 179.101562 65.96875 178.078125 65.589844 177.042969 65.242188 C 176.011719 64.894531 174.96875 64.574219 173.917969 64.28125 C 172.867188 63.992188 171.804688 63.730469 170.742188 63.5 C 169.675781 63.265625 168.601562 63.066406 167.527344 62.894531 C 166.449219 62.722656 165.367188 62.582031 164.28125 62.46875 C 163.199219 62.355469 162.109375 62.273438 161.019531 62.222656 C 159.929688 62.171875 158.839844 62.152344 157.75 62.160156 C 156.660156 62.171875 155.570312 62.210938 154.480469 62.28125 C 153.390625 62.351562 152.308594 62.453125 151.222656 62.582031 C 150.140625 62.714844 149.0625 62.875 147.988281 63.066406 C 146.914062 63.257812 145.847656 63.476562 144.785156 63.726562 C 143.722656 63.976562 142.667969 64.257812 141.625 64.566406 C 140.578125 64.875 139.539062 65.214844 138.511719 65.578125 C 137.484375 65.945312 136.46875 66.339844 135.464844 66.765625 C 134.457031 67.1875 133.464844 67.640625 132.484375 68.117188 C 131.507812 68.597656 130.539062 69.101562 129.585938 69.632812 C 128.636719 70.167969 127.699219 70.726562 126.777344 71.308594 C 125.859375 71.894531 124.953125 72.503906 124.066406 73.140625 C 123.179688 73.773438 122.3125 74.433594 121.460938 75.117188 C 120.609375 75.800781 119.78125 76.507812 118.96875 77.238281 C 118.160156 77.964844 117.367188 78.71875 116.597656 79.492188 C 115.832031 80.265625 115.082031 81.058594 114.359375 81.875 C 113.632812 82.691406 112.933594 83.523438 112.253906 84.378906 C 111.574219 85.234375 110.921875 86.105469 110.292969 86.996094 C 109.664062 87.886719 109.058594 88.792969 108.480469 89.71875 C 107.898438 90.644531 107.347656 91.582031 106.820312 92.539062 C 106.292969 93.492188 105.792969 94.460938 105.320312 95.445312 C 104.847656 96.429688 104.402344 97.425781 103.984375 98.433594 C 103.566406 99.441406 103.179688 100.457031 102.820312 101.488281 C 102.457031 102.515625 102.125 103.554688 101.824219 104.605469 C 101.519531 105.652344 101.246094 106.707031 101.003906 107.769531 C 100.757812 108.832031 100.546875 109.902344 100.359375 110.976562 C 100.175781 112.054688 100.023438 113.132812 99.898438 114.214844 C 99.773438 115.300781 99.679688 116.386719 99.617188 117.476562 C 99.550781 118.5625 99.519531 119.652344 99.515625 120.746094 C 99.511719 121.835938 99.539062 122.925781 99.597656 124.015625 C 99.65625 125.105469 99.742188 126.191406 99.859375 127.273438 C 99.980469 128.359375 100.125 129.441406 100.304688 130.515625 C 100.484375 131.59375 100.691406 132.664062 100.929688 133.726562 C 101.167969 134.792969 101.433594 135.847656 101.730469 136.898438 C 102.027344 137.949219 102.355469 138.988281 102.710938 140.019531 C 103.0625 141.050781 103.445312 142.074219 103.859375 143.082031 C 104.269531 144.09375 104.710938 145.089844 105.175781 146.074219 C 105.644531 147.0625 106.136719 148.035156 106.660156 148.992188 C 107.179688 149.949219 107.730469 150.894531 108.304688 151.820312 C 108.875 152.75 109.476562 153.660156 110.101562 154.554688 C 110.726562 155.449219 111.375 156.324219 112.046875 157.183594 C 112.722656 158.039062 113.417969 158.878906 114.136719 159.699219 C 114.859375 160.515625 115.601562 161.316406 116.363281 162.09375 C 117.128906 162.871094 117.914062 163.628906 118.722656 164.363281 C 119.527344 165.097656 120.355469 165.808594 121.203125 166.496094 C 122.046875 167.183594 122.914062 167.847656 123.796875 168.488281 C 124.679688 169.128906 125.578125 169.742188 126.496094 170.332031 C 127.414062 170.921875 128.347656 171.488281 129.296875 172.023438 C 130.246094 172.5625 131.210938 173.074219 132.1875 173.558594 C 133.164062 174.042969 134.15625 174.5 135.15625 174.925781 C 136.160156 175.355469 137.175781 175.757812 138.199219 176.128906 C 139.226562 176.503906 140.257812 176.847656 141.304688 177.160156 C 142.347656 177.476562 143.402344 177.761719 144.460938 178.019531 C 145.519531 178.273438 146.585938 178.5 147.660156 178.699219 C 148.734375 178.894531 149.8125 179.0625 150.894531 179.199219 C 151.976562 179.335938 153.058594 179.441406 154.148438 179.519531 C 155.238281 179.59375 156.324219 179.640625 157.417969 179.65625 C 158.507812 179.671875 159.597656 179.65625 160.6875 179.613281 C 161.777344 179.566406 162.867188 179.492188 163.949219 179.386719 C 165.035156 179.28125 166.117188 179.144531 167.195312 178.980469 C 168.273438 178.8125 169.347656 178.617188 170.414062 178.394531 C 171.480469 178.167969 172.542969 177.914062 173.59375 177.628906 C 174.648438 177.34375 175.691406 177.03125 176.726562 176.6875 C 177.761719 176.34375 178.789062 175.972656 179.804688 175.574219 C 180.820312 175.171875 181.820312 174.746094 182.8125 174.289062 C 183.804688 173.832031 184.78125 173.351562 185.746094 172.839844 C 186.710938 172.332031 187.660156 171.792969 188.59375 171.230469 C 189.527344 170.667969 190.445312 170.078125 191.347656 169.464844 C 192.246094 168.851562 193.132812 168.210938 193.996094 167.546875 C 194.863281 166.886719 195.710938 166.199219 196.539062 165.488281 C 197.367188 164.777344 198.171875 164.042969 198.960938 163.289062 C 199.746094 162.53125 200.511719 161.757812 201.253906 160.957031 C 202 160.160156 202.71875 159.34375 203.417969 158.503906 C 204.113281 157.664062 204.789062 156.808594 205.4375 155.933594 C 206.089844 155.054688 206.714844 154.164062 207.316406 153.253906 C 207.914062 152.34375 208.492188 151.414062 209.039062 150.472656 C 209.589844 149.53125 210.109375 148.574219 210.605469 147.601562 C 211.101562 146.628906 211.570312 145.644531 212.011719 144.648438 C 212.449219 143.648438 212.863281 142.640625 213.246094 141.617188 C 213.632812 140.597656 213.988281 139.566406 214.316406 138.527344 C 214.640625 137.484375 214.941406 136.4375 215.207031 135.378906 C 215.476562 134.324219 215.714844 133.257812 215.925781 132.1875 C 216.136719 131.117188 216.3125 130.042969 216.464844 128.960938 C 216.613281 127.882812 216.734375 126.796875 216.820312 125.710938 C 216.910156 124.621094 216.96875 123.535156 216.996094 122.445312 L 217.246094 112.796875 L 236.535156 113.296875 L 236.285156 122.9375 C 236.25 124.335938 236.175781 125.734375 236.0625 127.128906 C 235.953125 128.523438 235.804688 129.914062 235.617188 131.300781 C 235.433594 132.6875 235.207031 134.070312 234.949219 135.445312 C 234.6875 136.820312 234.390625 138.183594 234.058594 139.542969 C 233.722656 140.902344 233.351562 142.25 232.945312 143.589844 C 232.539062 144.929688 232.097656 146.257812 231.621094 147.570312 C 231.140625 148.886719 230.628906 150.1875 230.082031 151.476562 C 229.535156 152.761719 228.953125 154.035156 228.335938 155.289062 C 227.71875 156.546875 227.070312 157.785156 226.386719 159.007812 C 225.703125 160.226562 224.988281 161.429688 224.242188 162.613281 C 223.496094 163.796875 222.714844 164.957031 221.90625 166.097656 C 221.097656 167.238281 220.257812 168.359375 219.386719 169.453125 C 218.515625 170.550781 217.617188 171.621094 216.691406 172.667969 C 215.761719 173.714844 214.808594 174.738281 213.824219 175.734375 C 212.84375 176.730469 211.835938 177.699219 210.800781 178.640625 C 209.765625 179.582031 208.707031 180.496094 207.621094 181.382812 C 206.539062 182.265625 205.429688 183.121094 204.300781 183.945312 C 203.171875 184.773438 202.019531 185.566406 200.847656 186.332031 C 199.675781 187.09375 198.484375 187.824219 197.269531 188.523438 C 196.058594 189.222656 194.828125 189.890625 193.582031 190.523438 C 192.335938 191.15625 191.070312 191.757812 189.789062 192.320312 C 188.511719 192.886719 187.214844 193.417969 185.910156 193.914062 C 184.601562 194.410156 183.277344 194.867188 181.945312 195.292969 C 180.613281 195.71875 179.269531 196.105469 177.914062 196.460938 C 176.5625 196.8125 175.199219 197.128906 173.828125 197.40625 C 172.457031 197.6875 171.078125 197.929688 169.695312 198.132812 C 168.3125 198.339844 166.921875 198.507812 165.527344 198.636719 C 164.136719 198.765625 162.742188 198.859375 161.34375 198.914062 C 159.945312 198.96875 158.546875 198.988281 157.148438 198.96875 C 155.746094 198.949219 154.351562 198.890625 152.953125 198.796875 C 151.558594 198.703125 150.164062 198.570312 148.777344 198.398438 C 147.386719 198.230469 146.003906 198.023438 144.628906 197.777344 C 143.25 197.535156 141.878906 197.253906 140.515625 196.933594 C 139.152344 196.617188 137.800781 196.261719 136.457031 195.871094 C 135.113281 195.480469 133.78125 195.054688 132.460938 194.59375 C 131.140625 194.128906 129.832031 193.632812 128.539062 193.101562 C 127.246094 192.566406 125.96875 192 124.703125 191.398438 C 123.441406 190.796875 122.195312 190.164062 120.964844 189.496094 C 119.734375 188.828125 118.523438 188.125 117.332031 187.390625 C 116.140625 186.660156 114.972656 185.894531 113.820312 185.097656 C 112.671875 184.300781 111.542969 183.472656 110.4375 182.617188 C 109.332031 181.761719 108.25 180.875 107.191406 179.957031 C 106.132812 179.042969 105.097656 178.101562 104.089844 177.128906 C 103.082031 176.160156 102.101562 175.160156 101.148438 174.136719 C 100.195312 173.113281 99.269531 172.066406 98.371094 170.992188 C 97.472656 169.917969 96.605469 168.824219 95.765625 167.703125 C 94.929688 166.582031 94.121094 165.441406 93.34375 164.277344 C 92.566406 163.113281 91.820312 161.929688 91.105469 160.726562 C 90.394531 159.523438 89.710938 158.300781 89.066406 157.0625 C 88.417969 155.820312 87.804688 154.566406 87.222656 153.292969 C 86.640625 152.019531 86.097656 150.730469 85.585938 149.429688 C 85.074219 148.125 84.597656 146.8125 84.160156 145.484375 C 83.71875 144.15625 83.3125 142.816406 82.945312 141.464844 C 82.578125 140.117188 82.246094 138.757812 81.949219 137.390625 C 81.65625 136.023438 81.398438 134.648438 81.175781 133.265625 C 80.953125 131.882812 80.769531 130.496094 80.621094 129.105469 C 80.476562 127.714844 80.367188 126.320312 80.296875 124.921875 C 80.222656 123.527344 80.1875 122.128906 80.191406 120.726562 C 80.195312 119.328125 80.238281 117.929688 80.316406 116.535156 C 80.394531 115.136719 80.511719 113.742188 80.664062 112.351562 C 80.816406 110.960938 81.007812 109.574219 81.234375 108.195312 C 81.464844 106.816406 81.730469 105.441406 82.03125 104.074219 C 82.332031 102.710938 82.671875 101.351562 83.046875 100.003906 C 83.421875 98.65625 83.832031 97.320312 84.277344 95.992188 C 84.726562 94.667969 85.207031 93.355469 85.722656 92.054688 C 86.242188 90.753906 86.792969 89.46875 87.378906 88.199219 C 87.964844 86.929688 88.585938 85.675781 89.238281 84.4375 C 89.894531 83.199219 90.582031 81.980469 91.300781 80.78125 C 92.019531 79.582031 92.769531 78.402344 93.554688 77.242188 C 94.335938 76.082031 95.148438 74.945312 95.992188 73.828125 C 96.835938 72.714844 97.710938 71.621094 98.613281 70.550781 C 99.515625 69.484375 100.449219 68.4375 101.40625 67.417969 C 102.363281 66.402344 103.351562 65.410156 104.363281 64.441406 C 105.375 63.476562 106.414062 62.539062 107.476562 61.628906 C 108.539062 60.71875 109.625 59.835938 110.734375 58.984375 C 111.84375 58.132812 112.976562 57.3125 114.132812 56.523438 C 115.285156 55.730469 116.460938 54.972656 117.65625 54.242188 C 118.851562 53.515625 120.0625 52.820312 121.296875 52.160156 C 122.527344 51.496094 123.777344 50.867188 125.042969 50.273438 C 126.3125 49.675781 127.59375 49.117188 128.886719 48.589844 C 130.183594 48.0625 131.496094 47.574219 132.816406 47.117188 C 134.140625 46.660156 135.472656 46.242188 136.820312 45.855469 C 138.164062 45.472656 139.519531 45.125 140.882812 44.8125 C 142.246094 44.503906 143.621094 44.226562 145 43.988281 C 146.378906 43.753906 147.761719 43.550781 149.152344 43.390625 C 150.539062 43.226562 151.933594 43.101562 153.328125 43.011719 C 154.726562 42.921875 156.125 42.875 157.523438 42.859375 C 158.921875 42.847656 160.320312 42.871094 161.71875 42.933594 C 163.117188 42.996094 164.511719 43.09375 165.902344 43.234375 C 167.296875 43.371094 168.683594 43.542969 170.066406 43.757812 C 171.449219 43.96875 172.828125 44.214844 174.195312 44.503906 C 175.566406 44.789062 176.925781 45.109375 178.277344 45.46875 C 179.632812 45.828125 180.972656 46.222656 182.304688 46.65625 C 183.636719 47.085938 184.953125 47.550781 186.261719 48.054688 C 187.566406 48.554688 188.859375 49.09375 190.136719 49.664062 C 191.410156 50.234375 192.671875 50.839844 193.917969 51.480469 Z M 193.921875 51.484375 " fill-opacity="1" fill-rule="nonzero"/></g></g></g></svg>